<svg t="1590570844396" class="icon" viewBox="0 0 1024 1024" version="1.1" xmlns="http://www.w3.org/2000/svg" p-id="5437" width="32" height="32"><path d="M815.3149 247.1557l25.5437-25.5447c2.9655-2.9665 4.9715-6.4553 6.3447-10.1356l38.2618 38.2618c5.4938 5.4938 12.6904 8.2401 19.8871 8.2401 7.1956 0 14.3933-2.7474 19.8861-8.2401 10.9865-10.9865 10.9865-28.7857 0-39.7732L812.7324 97.4582c-10.9875-10.9875-28.7867-10.9875-39.7732 0-10.9865 10.9865-10.9865 28.7857 0 39.7722l38.2618 38.2628c-3.6813 1.3732-7.17 3.3782-10.1356 6.3447l-27.3848 27.3848c-65.152-51.8308-145.879-84.5998-233.9942-90.4499V89.218048c0-15.5464-12.5809-28.1262-28.1272-28.1262s-28.1272 12.5798-28.1272 28.1262v29.554688c-219.52 14.5848-393.7731 197.3258-393.7731 420.4718 0 232.6487 189.2506 421.9003 421.9003 421.9003 232.6467 0 421.9003-189.2506 421.9003-421.9003C933.4794 425.8857 888.322 323.0208 815.3149 247.1557zM511.5791 904.8904c-201.6123 0-365.6458-164.0356-365.6458-365.6458 0-201.6113 164.0335-365.6468 365.6458-365.6468s365.6468 164.0356 365.6468 365.6468C877.226 740.8538 713.1914 904.8904 511.5791 904.8904zM539.7064 460.0556V257.977344c0-15.5464-12.5809-28.1272-28.1272-28.1272s-28.1272 12.5809-28.1272 28.1272V460.05555200000003c-32.6584 11.647-56.2534 42.5759-56.2534 79.189 0 46.5285 37.8491 84.3796 84.3796 84.3796 46.5295 0 84.3796-37.8511 84.3796-84.3796C595.9598 502.6314 572.3638 471.7025 539.7064 460.0556zM539.7064 567.3708h-56.254464v-56.253440000000005h56.254464V567.370752z" p-id="5438" fill="#8CD5ED"></path></svg>